<svg width="93" height="18" viewBox="0 0 93 18" fill="none" xmlns="http://www.w3.org/2000/svg">
<path d="M11.3111 5.16619H9.31676C9.24006 4.74006 9.0973 4.36506 8.88849 4.04119C8.67969 3.71733 8.42401 3.44247 8.12145 3.21662C7.81889 2.99077 7.48011 2.82031 7.10511 2.70526C6.73438 2.5902 6.3402 2.53267 5.92259 2.53267C5.16832 2.53267 4.4929 2.7223 3.89631 3.10156C3.30398 3.48082 2.83523 4.03693 2.49006 4.76989C2.14915 5.50284 1.97869 6.39773 1.97869 7.45455C1.97869 8.51989 2.14915 9.41903 2.49006 10.152C2.83523 10.8849 3.30611 11.4389 3.9027 11.8139C4.49929 12.1889 5.17045 12.3764 5.91619 12.3764C6.32955 12.3764 6.72159 12.321 7.09233 12.2102C7.46733 12.0952 7.80611 11.9268 8.10866 11.7053C8.41122 11.4837 8.6669 11.2131 8.87571 10.8935C9.08878 10.5696 9.2358 10.1989 9.31676 9.78125L11.3111 9.78764C11.2045 10.4311 10.9979 11.0234 10.6911 11.5646C10.3885 12.1016 9.99858 12.5661 9.52131 12.9581C9.0483 13.3459 8.5071 13.6463 7.89773 13.8594C7.28835 14.0724 6.62358 14.179 5.90341 14.179C4.76989 14.179 3.75994 13.9105 2.87358 13.3736C1.98722 12.8324 1.28835 12.0589 0.776989 11.0533C0.269886 10.0476 0.0163353 8.84801 0.0163353 7.45455C0.0163353 6.05682 0.272017 4.85724 0.783381 3.85582C1.29474 2.85014 1.99361 2.07883 2.87997 1.5419C3.76634 1.00071 4.77415 0.730113 5.90341 0.730113C6.59801 0.730113 7.24574 0.830255 7.84659 1.03054C8.4517 1.22656 8.99503 1.51633 9.47656 1.89986C9.9581 2.27912 10.3565 2.74361 10.6719 3.29332C10.9872 3.83878 11.2003 4.46307 11.3111 5.16619ZM16.3784 14.2173C15.7562 14.2173 15.1937 14.1023 14.6909 13.8722C14.188 13.6378 13.7896 13.299 13.4956 12.8558C13.2058 12.4126 13.0609 11.8693 13.0609 11.2259C13.0609 10.6719 13.1674 10.2159 13.3805 9.85795C13.5936 9.5 13.8812 9.21662 14.2434 9.00781C14.6056 8.79901 15.0105 8.64134 15.4579 8.5348C15.9054 8.42827 16.3613 8.3473 16.8258 8.2919C17.4139 8.22372 17.8912 8.16832 18.2576 8.12571C18.6241 8.07884 18.8904 8.00426 19.0566 7.90199C19.2228 7.79972 19.3059 7.63352 19.3059 7.40341V7.35866C19.3059 6.80043 19.1483 6.3679 18.8329 6.06108C18.5218 5.75426 18.0574 5.60085 17.4395 5.60085C16.796 5.60085 16.2889 5.74361 15.9181 6.02912C15.5517 6.31037 15.2981 6.62358 15.1575 6.96875L13.3613 6.55966C13.5744 5.96307 13.8855 5.48153 14.2946 5.11506C14.7079 4.74432 15.1831 4.47585 15.72 4.30966C16.2569 4.1392 16.8216 4.05398 17.4139 4.05398C17.8059 4.05398 18.2214 4.10085 18.6603 4.1946C19.1035 4.28409 19.5169 4.45028 19.9004 4.69318C20.2882 4.93608 20.6056 5.28338 20.8528 5.73509C21.1 6.18253 21.2235 6.7642 21.2235 7.48011V14H19.3571V12.6577H19.2804C19.1568 12.9048 18.9714 13.1477 18.7243 13.3864C18.4771 13.625 18.1596 13.8232 17.7718 13.9808C17.3841 14.1385 16.9196 14.2173 16.3784 14.2173ZM16.7939 12.6832C17.3223 12.6832 17.774 12.5788 18.149 12.37C18.5282 12.1612 18.8159 11.8885 19.0119 11.5518C19.2122 11.2109 19.3123 10.8466 19.3123 10.4588V9.19318C19.2441 9.26136 19.112 9.32528 18.916 9.38494C18.7243 9.44034 18.5048 9.48935 18.2576 9.53196C18.0105 9.57031 17.7697 9.60653 17.5353 9.64062C17.301 9.67045 17.1049 9.69602 16.9473 9.71733C16.5765 9.7642 16.2377 9.84304 15.9309 9.95384C15.6284 10.0646 15.3855 10.2244 15.2022 10.4332C15.0233 10.6378 14.9338 10.9105 14.9338 11.2514C14.9338 11.7244 15.1085 12.0824 15.4579 12.3253C15.8074 12.5639 16.2527 12.6832 16.7939 12.6832ZM28.3523 4.18182V5.71591H22.9893V4.18182H28.3523ZM24.4276 1.82955H26.3388V11.1172C26.3388 11.4879 26.3942 11.767 26.505 11.9545C26.6158 12.1378 26.7585 12.2635 26.9332 12.3317C27.1122 12.3956 27.3061 12.4276 27.5149 12.4276C27.6683 12.4276 27.8026 12.4169 27.9176 12.3956C28.0327 12.3743 28.1222 12.3572 28.1861 12.3445L28.5312 13.9233C28.4205 13.9659 28.2628 14.0085 28.0582 14.0511C27.8537 14.098 27.598 14.1236 27.2912 14.1278C26.7884 14.1364 26.3196 14.0469 25.8849 13.8594C25.4503 13.6719 25.0987 13.3821 24.8303 12.9901C24.5618 12.598 24.4276 12.1058 24.4276 11.5135V1.82955ZM34.5925 14.1982C33.6252 14.1982 32.7921 13.9915 32.0932 13.5781C31.3986 13.1605 30.8617 12.5746 30.4824 11.8203C30.1074 11.0618 29.9199 10.1733 29.9199 9.15483C29.9199 8.14915 30.1074 7.26278 30.4824 6.49574C30.8617 5.72869 31.3901 5.12997 32.0676 4.69957C32.7495 4.26918 33.5463 4.05398 34.4583 4.05398C35.0123 4.05398 35.5492 4.1456 36.0691 4.32884C36.589 4.51207 37.0556 4.79972 37.4689 5.19176C37.8823 5.58381 38.2083 6.09304 38.4469 6.71946C38.6855 7.34162 38.8049 8.09801 38.8049 8.98864V9.66619H31.0002V8.23438H36.932C36.932 7.73153 36.8297 7.28622 36.6252 6.89844C36.4206 6.50639 36.133 6.19744 35.7623 5.97159C35.3958 5.74574 34.9654 5.63281 34.4711 5.63281C33.9341 5.63281 33.4654 5.76491 33.0648 6.02912C32.6685 6.28906 32.3617 6.62997 32.1444 7.05185C31.9313 7.46946 31.8248 7.9233 31.8248 8.41335V9.53196C31.8248 10.1882 31.9398 10.7464 32.1699 11.2067C32.4043 11.6669 32.7303 12.0185 33.1479 12.2614C33.5655 12.5 34.0534 12.6193 34.6117 12.6193C34.9739 12.6193 35.3042 12.5682 35.6025 12.4659C35.9007 12.3594 36.1586 12.2017 36.3759 11.9929C36.5932 11.7841 36.7594 11.5263 36.8745 11.2195L38.6834 11.5455C38.5385 12.0781 38.2786 12.5447 37.9036 12.9453C37.5328 13.3416 37.0662 13.6506 36.5037 13.8722C35.9455 14.0895 35.3084 14.1982 34.5925 14.1982ZM45.0419 17.8864C44.2621 17.8864 43.5909 17.7841 43.0284 17.5795C42.4702 17.375 42.0142 17.1044 41.6605 16.7678C41.3068 16.4311 41.0426 16.0625 40.8679 15.6619L42.5107 14.9844C42.6257 15.1719 42.7791 15.37 42.9709 15.5788C43.1669 15.7919 43.4311 15.973 43.7635 16.1222C44.1001 16.2713 44.5327 16.3459 45.0611 16.3459C45.7855 16.3459 46.3842 16.169 46.8572 15.8153C47.3303 15.4659 47.5668 14.9077 47.5668 14.1406V12.2102H47.4453C47.3303 12.419 47.1641 12.6513 46.9467 12.907C46.7337 13.1626 46.4396 13.3842 46.0646 13.5717C45.6896 13.7592 45.2017 13.853 44.6009 13.853C43.8253 13.853 43.1264 13.6719 42.5043 13.3097C41.8864 12.9432 41.3963 12.4041 41.0341 11.6925C40.6761 10.9766 40.4972 10.0966 40.4972 9.05256C40.4972 8.00852 40.674 7.11364 41.0277 6.3679C41.3857 5.62216 41.8757 5.05114 42.4979 4.65483C43.12 4.25426 43.8253 4.05398 44.6136 4.05398C45.223 4.05398 45.7152 4.15625 46.0902 4.3608C46.4652 4.56108 46.7571 4.79545 46.9659 5.06392C47.179 5.33239 47.343 5.56889 47.4581 5.77344H47.5987V4.18182H49.4716V14.2173C49.4716 15.0611 49.2756 15.7536 48.8835 16.2947C48.4915 16.8359 47.9609 17.2365 47.2919 17.4964C46.6271 17.7564 45.8771 17.8864 45.0419 17.8864ZM45.0227 12.2678C45.5724 12.2678 46.0369 12.1399 46.4162 11.8842C46.7997 11.6243 47.0895 11.2536 47.2855 10.772C47.4858 10.2862 47.5859 9.70455 47.5859 9.02699C47.5859 8.36648 47.4879 7.7848 47.2919 7.28196C47.0959 6.77912 46.8082 6.38707 46.429 6.10582C46.0497 5.82031 45.581 5.67756 45.0227 5.67756C44.4474 5.67756 43.968 5.8267 43.5845 6.125C43.201 6.41903 42.9112 6.8196 42.7152 7.3267C42.5234 7.83381 42.4276 8.40057 42.4276 9.02699C42.4276 9.67045 42.5256 10.2351 42.7216 10.7209C42.9176 11.2067 43.2074 11.5859 43.5909 11.8587C43.9787 12.1314 44.456 12.2678 45.0227 12.2678ZM56.1705 14.1982C55.25 14.1982 54.4467 13.9872 53.7607 13.5653C53.0746 13.1435 52.5419 12.5533 52.1626 11.7947C51.7834 11.0362 51.5938 10.1499 51.5938 9.13565C51.5938 8.11719 51.7834 7.22656 52.1626 6.46378C52.5419 5.70099 53.0746 5.10866 53.7607 4.68679C54.4467 4.26491 55.25 4.05398 56.1705 4.05398C57.0909 4.05398 57.8942 4.26491 58.5803 4.68679C59.2663 5.10866 59.799 5.70099 60.1783 6.46378C60.5575 7.22656 60.7472 8.11719 60.7472 9.13565C60.7472 10.1499 60.5575 11.0362 60.1783 11.7947C59.799 12.5533 59.2663 13.1435 58.5803 13.5653C57.8942 13.9872 57.0909 14.1982 56.1705 14.1982ZM56.1768 12.5938C56.7734 12.5938 57.2678 12.4361 57.6598 12.1207C58.0518 11.8054 58.3416 11.3857 58.5291 10.8615C58.7209 10.3374 58.8168 9.75994 58.8168 9.12926C58.8168 8.50284 58.7209 7.92756 58.5291 7.40341C58.3416 6.875 58.0518 6.45099 57.6598 6.13139C57.2678 5.81179 56.7734 5.65199 56.1768 5.65199C55.576 5.65199 55.0774 5.81179 54.6811 6.13139C54.2891 6.45099 53.9972 6.875 53.8054 7.40341C53.6179 7.92756 53.5241 8.50284 53.5241 9.12926C53.5241 9.75994 53.6179 10.3374 53.8054 10.8615C53.9972 11.3857 54.2891 11.8054 54.6811 12.1207C55.0774 12.4361 55.576 12.5938 56.1768 12.5938ZM62.8805 14V4.18182H64.7278V5.74148H64.8301C65.0091 5.21307 65.3244 4.79758 65.7761 4.49503C66.2321 4.18821 66.7477 4.0348 67.323 4.0348C67.4423 4.0348 67.5829 4.03906 67.7449 4.04759C67.911 4.05611 68.041 4.06676 68.1348 4.07955V5.90767C68.0581 5.88636 67.9217 5.86293 67.7257 5.83736C67.5297 5.80753 67.3336 5.79261 67.1376 5.79261C66.6859 5.79261 66.2832 5.88849 65.9295 6.08026C65.5801 6.26776 65.3031 6.52983 65.0985 6.86648C64.894 7.19886 64.7917 7.57812 64.7917 8.00426V14H62.8805ZM69.7887 14V4.18182H71.6999V14H69.7887ZM70.7539 2.6669C70.4215 2.6669 70.136 2.55611 69.8974 2.33452C69.663 2.10866 69.5458 1.8402 69.5458 1.52912C69.5458 1.21378 69.663 0.945312 69.8974 0.723721C70.136 0.497869 70.4215 0.384943 70.7539 0.384943C71.0863 0.384943 71.3697 0.497869 71.604 0.723721C71.8427 0.945312 71.962 1.21378 71.962 1.52912C71.962 1.8402 71.8427 2.10866 71.604 2.33452C71.3697 2.55611 71.0863 2.6669 70.7539 2.6669ZM78.5027 14.1982C77.5353 14.1982 76.7022 13.9915 76.0034 13.5781C75.3088 13.1605 74.7718 12.5746 74.3926 11.8203C74.0176 11.0618 73.8301 10.1733 73.8301 9.15483C73.8301 8.14915 74.0176 7.26278 74.3926 6.49574C74.7718 5.72869 75.3002 5.12997 75.9778 4.69957C76.6596 4.26918 77.4565 4.05398 78.3684 4.05398C78.9224 4.05398 79.4593 4.1456 79.9792 4.32884C80.4991 4.51207 80.9657 4.79972 81.3791 5.19176C81.7924 5.58381 82.1184 6.09304 82.3571 6.71946C82.5957 7.34162 82.715 8.09801 82.715 8.98864V9.66619H74.9103V8.23438H80.8422C80.8422 7.73153 80.7399 7.28622 80.5353 6.89844C80.3308 6.50639 80.0431 6.19744 79.6724 5.97159C79.3059 5.74574 78.8755 5.63281 78.3812 5.63281C77.8443 5.63281 77.3755 5.76491 76.975 6.02912C76.5787 6.28906 76.2718 6.62997 76.0545 7.05185C75.8414 7.46946 75.7349 7.9233 75.7349 8.41335V9.53196C75.7349 10.1882 75.85 10.7464 76.0801 11.2067C76.3145 11.6669 76.6404 12.0185 77.0581 12.2614C77.4757 12.5 77.9636 12.6193 78.5218 12.6193C78.8841 12.6193 79.2143 12.5682 79.5126 12.4659C79.8109 12.3594 80.0687 12.2017 80.286 11.9929C80.5034 11.7841 80.6696 11.5263 80.7846 11.2195L82.5936 11.5455C82.4487 12.0781 82.1887 12.5447 81.8137 12.9453C81.443 13.3416 80.9764 13.6506 80.4139 13.8722C79.8556 14.0895 79.2186 14.1982 78.5027 14.1982ZM92.1928 6.57884L90.4606 6.88565C90.3881 6.66406 90.2731 6.45312 90.1154 6.25284C89.962 6.05256 89.7532 5.88849 89.489 5.76065C89.2248 5.63281 88.8945 5.56889 88.4982 5.56889C87.957 5.56889 87.5053 5.69034 87.1431 5.93324C86.7809 6.17187 86.5998 6.48082 86.5998 6.86009C86.5998 7.18821 86.7212 7.45241 86.9641 7.6527C87.207 7.85298 87.5991 8.01705 88.1403 8.14489L89.6999 8.50284C90.6033 8.71165 91.2766 9.03338 91.7198 9.46804C92.163 9.9027 92.3846 10.4673 92.3846 11.1619C92.3846 11.75 92.2141 12.2741 91.8732 12.7344C91.5366 13.1903 91.0657 13.5483 90.4606 13.8082C89.8597 14.0682 89.163 14.1982 88.3704 14.1982C87.271 14.1982 86.3739 13.9638 85.6793 13.495C84.9847 13.022 84.5586 12.3509 84.4009 11.4815L86.2482 11.2003C86.3633 11.6818 86.5998 12.0462 86.9577 12.2933C87.3157 12.5362 87.7823 12.6577 88.3576 12.6577C88.984 12.6577 89.4847 12.5277 89.8597 12.2678C90.2347 12.0036 90.4222 11.6818 90.4222 11.3026C90.4222 10.9957 90.3072 10.7379 90.0771 10.5291C89.8512 10.3203 89.5039 10.1626 89.0352 10.0561L87.3732 9.69176C86.457 9.48295 85.7795 9.15057 85.3406 8.6946C84.9059 8.23864 84.6886 7.66122 84.6886 6.96236C84.6886 6.38281 84.8505 5.87571 85.1744 5.44105C85.4982 5.00639 85.9457 4.66761 86.5167 4.42472C87.0877 4.17756 87.7418 4.05398 88.479 4.05398C89.5401 4.05398 90.3754 4.28409 90.9847 4.74432C91.5941 5.20028 91.9968 5.81179 92.1928 6.57884Z" fill="#010E16"/>
</svg>
