<svg width="120" height="31" viewBox="0 0 120 31" fill="none" xmlns="http://www.w3.org/2000/svg">
<rect y="0.521484" width="120" height="29.8282" rx="6" fill="white"/>
<path d="M24.2074 13.5157H22.8778C22.8267 13.2316 22.7315 12.9816 22.5923 12.7657C22.4531 12.5498 22.2827 12.3666 22.081 12.216C21.8793 12.0654 21.6534 11.9518 21.4034 11.8751C21.1563 11.7984 20.8935 11.76 20.6151 11.76C20.1122 11.76 19.6619 11.8864 19.2642 12.1393C18.8693 12.3921 18.5568 12.7629 18.3267 13.2515C18.0994 13.7401 17.9858 14.3367 17.9858 15.0413C17.9858 15.7515 18.0994 16.3509 18.3267 16.8396C18.5568 17.3282 18.8707 17.6975 19.2685 17.9475C19.6662 18.1975 20.1136 18.3225 20.6108 18.3225C20.8864 18.3225 21.1477 18.2856 21.3949 18.2117C21.6449 18.135 21.8707 18.0228 22.0724 17.8751C22.2741 17.7274 22.4446 17.547 22.5838 17.3339C22.7259 17.118 22.8239 16.8708 22.8778 16.5924L24.2074 16.5967C24.1364 17.0256 23.9986 17.4205 23.794 17.7813C23.5923 18.1393 23.3324 18.4489 23.0142 18.7103C22.6989 18.9688 22.3381 19.1691 21.9318 19.3112C21.5256 19.4532 21.0824 19.5242 20.6023 19.5242C19.8466 19.5242 19.1733 19.3452 18.5824 18.9873C17.9915 18.6265 17.5256 18.1109 17.1847 17.4404C16.8466 16.77 16.6776 15.9702 16.6776 15.0413C16.6776 14.1095 16.848 13.3097 17.1889 12.6421C17.5298 11.9717 17.9957 11.4575 18.5866 11.0995C19.1776 10.7387 19.8494 10.5583 20.6023 10.5583C21.0653 10.5583 21.4972 10.6251 21.8977 10.7586C22.3011 10.8893 22.6634 11.0825 22.9844 11.3381C23.3054 11.591 23.571 11.9006 23.7812 12.2671C23.9915 12.6308 24.1335 13.047 24.2074 13.5157ZM26.9549 10.6776V19.4049H25.6808V10.6776H26.9549ZM30.5739 19.5498C30.1591 19.5498 29.7841 19.4731 29.4489 19.3197C29.1136 19.1634 28.848 18.9376 28.652 18.6421C28.4588 18.3467 28.3622 17.9845 28.3622 17.5555C28.3622 17.1862 28.4332 16.8822 28.5753 16.6435C28.7173 16.4049 28.9091 16.216 29.1506 16.0768C29.392 15.9376 29.6619 15.8325 29.9602 15.7614C30.2585 15.6904 30.5625 15.6364 30.8722 15.5995C31.2642 15.5541 31.5824 15.5171 31.8267 15.4887C32.071 15.4575 32.2486 15.4077 32.3594 15.3396C32.4702 15.2714 32.5256 15.1606 32.5256 15.0072V14.9774C32.5256 14.6052 32.4205 14.3168 32.2102 14.1123C32.0028 13.9077 31.6932 13.8055 31.2812 13.8055C30.8523 13.8055 30.5142 13.9006 30.267 14.091C30.0227 14.2785 29.8537 14.4873 29.7599 14.7174L28.5625 14.4447C28.7045 14.047 28.9119 13.7259 29.1847 13.4816C29.4602 13.2345 29.777 13.0555 30.1349 12.9447C30.4929 12.831 30.8693 12.7742 31.2642 12.7742C31.5256 12.7742 31.8026 12.8055 32.0952 12.868C32.3906 12.9276 32.6662 13.0384 32.9219 13.2004C33.1804 13.3623 33.392 13.5938 33.5568 13.895C33.7216 14.1933 33.804 14.581 33.804 15.0583V19.4049H32.5597V18.51H32.5085C32.4261 18.6748 32.3026 18.8367 32.1378 18.9958C31.973 19.1549 31.7614 19.287 31.5028 19.3921C31.2443 19.4972 30.9347 19.5498 30.5739 19.5498ZM30.8509 18.5271C31.2031 18.5271 31.5043 18.4575 31.7543 18.3183C32.0071 18.1791 32.1989 17.9972 32.3295 17.7728C32.4631 17.5455 32.5298 17.3026 32.5298 17.0441V16.2004C32.4844 16.2458 32.3963 16.2884 32.2656 16.3282C32.1378 16.3651 31.9915 16.3978 31.8267 16.4262C31.6619 16.4518 31.5014 16.4759 31.3452 16.4987C31.1889 16.5185 31.0582 16.5356 30.9531 16.5498C30.706 16.581 30.4801 16.6336 30.2756 16.7075C30.0739 16.7813 29.9119 16.8879 29.7898 17.0271C29.6705 17.1634 29.6108 17.3452 29.6108 17.5725C29.6108 17.8879 29.7273 18.1265 29.9602 18.2884C30.1932 18.4475 30.4901 18.5271 30.8509 18.5271ZM35.5011 19.4049V12.8595H36.7752V19.4049H35.5011ZM36.1445 11.8495C35.9229 11.8495 35.7326 11.7756 35.5735 11.6279C35.4173 11.4773 35.3391 11.2984 35.3391 11.091C35.3391 10.8808 35.4173 10.7018 35.5735 10.5541C35.7326 10.4035 35.9229 10.3282 36.1445 10.3282C36.3661 10.3282 36.555 10.4035 36.7113 10.5541C36.8704 10.7018 36.9499 10.8808 36.9499 11.091C36.9499 11.2984 36.8704 11.4773 36.7113 11.6279C36.555 11.7756 36.3661 11.8495 36.1445 11.8495ZM38.4893 19.4049V12.8595H39.7124V13.9248H39.7933C39.9297 13.564 40.1527 13.2827 40.4624 13.081C40.772 12.8765 41.1428 12.7742 41.5746 12.7742C42.0121 12.7742 42.3786 12.8765 42.674 13.081C42.9723 13.2856 43.1925 13.5668 43.3345 13.9248H43.4027C43.5589 13.5754 43.8075 13.297 44.1484 13.0896C44.4893 12.8793 44.8956 12.7742 45.3672 12.7742C45.9609 12.7742 46.4453 12.9603 46.8203 13.3325C47.1982 13.7046 47.3871 14.2657 47.3871 15.0157V19.4049H46.1129V15.135C46.1129 14.6918 45.9922 14.3708 45.7507 14.172C45.5092 13.9731 45.2209 13.8737 44.8857 13.8737C44.4709 13.8737 44.1484 14.0015 43.9183 14.2572C43.6882 14.51 43.5732 14.8353 43.5732 15.233V19.4049H42.3033V15.0541C42.3033 14.6989 42.1925 14.4134 41.9709 14.1975C41.7493 13.9816 41.4609 13.8737 41.1058 13.8737C40.8643 13.8737 40.6413 13.9376 40.4368 14.0654C40.2351 14.1904 40.0717 14.3651 39.9467 14.5896C39.8246 14.814 39.7635 15.0739 39.7635 15.3694V19.4049H38.4893ZM53.1357 10.6776L55.5646 17.7856H55.6626L58.0916 10.6776H59.5149L56.3743 19.4049H54.853L51.7124 10.6776H53.1357ZM62.7738 19.537C62.1602 19.537 61.6246 19.3964 61.1673 19.1151C60.7099 18.8339 60.3548 18.4404 60.1019 17.9347C59.8491 17.4291 59.7227 16.8381 59.7227 16.162C59.7227 15.483 59.8491 14.8893 60.1019 14.3808C60.3548 13.8722 60.7099 13.4774 61.1673 13.1961C61.6246 12.9149 62.1602 12.7742 62.7738 12.7742C63.3874 12.7742 63.9229 12.9149 64.3803 13.1961C64.8377 13.4774 65.1928 13.8722 65.4457 14.3808C65.6985 14.8893 65.8249 15.483 65.8249 16.162C65.8249 16.8381 65.6985 17.4291 65.4457 17.9347C65.1928 18.4404 64.8377 18.8339 64.3803 19.1151C63.9229 19.3964 63.3874 19.537 62.7738 19.537ZM62.7781 18.4674C63.1758 18.4674 63.5053 18.3623 63.7667 18.1521C64.0281 17.9418 64.2212 17.662 64.3462 17.3126C64.4741 16.9631 64.538 16.5782 64.538 16.1577C64.538 15.7401 64.4741 15.3566 64.3462 15.0072C64.2212 14.6549 64.0281 14.3722 63.7667 14.1592C63.5053 13.9461 63.1758 13.8396 62.7781 13.8396C62.3775 13.8396 62.0451 13.9461 61.7809 14.1592C61.5195 14.3722 61.3249 14.6549 61.1971 15.0072C61.0721 15.3566 61.0096 15.7401 61.0096 16.1577C61.0096 16.5782 61.0721 16.9631 61.1971 17.3126C61.3249 17.662 61.5195 17.9418 61.7809 18.1521C62.0451 18.3623 62.3775 18.4674 62.7781 18.4674ZM71.3935 16.6904V12.8595H72.6719V19.4049H71.419V18.2714H71.3509C71.2003 18.6208 70.9588 18.912 70.6264 19.145C70.2969 19.3751 69.8864 19.4901 69.3949 19.4901C68.9744 19.4901 68.6023 19.3978 68.2784 19.2131C67.9574 19.0256 67.7045 18.7487 67.5199 18.3822C67.3381 18.0157 67.2472 17.5626 67.2472 17.0228V12.8595H68.5213V16.8694C68.5213 17.3154 68.6449 17.6705 68.892 17.9347C69.1392 18.1989 69.4602 18.331 69.8551 18.331C70.0938 18.331 70.331 18.2714 70.5668 18.1521C70.8054 18.0327 71.0028 17.8524 71.1591 17.6109C71.3182 17.3694 71.3963 17.0626 71.3935 16.6904ZM77.141 19.537C76.5075 19.537 75.962 19.3935 75.5046 19.1066C75.0501 18.8168 74.7006 18.4177 74.4563 17.9092C74.212 17.4006 74.0898 16.8183 74.0898 16.162C74.0898 15.4972 74.2148 14.9106 74.4648 14.4021C74.7148 13.8907 75.0671 13.4916 75.5217 13.2046C75.9762 12.9177 76.5117 12.7742 77.1282 12.7742C77.6254 12.7742 78.0685 12.8666 78.4577 13.0512C78.8469 13.233 79.1609 13.4887 79.3995 13.8183C79.641 14.1478 79.7844 14.5327 79.8299 14.9731H78.5898C78.5217 14.6663 78.3654 14.4021 78.1211 14.1805C77.8796 13.9589 77.5558 13.8481 77.1495 13.8481C76.7944 13.8481 76.4833 13.9418 76.2163 14.1293C75.9521 14.314 75.7461 14.5782 75.5984 14.922C75.4506 15.2629 75.3768 15.6663 75.3768 16.1322C75.3768 16.6095 75.4492 17.0214 75.5941 17.368C75.739 17.7146 75.9435 17.983 76.2077 18.1734C76.4748 18.3637 76.7887 18.4589 77.1495 18.4589C77.391 18.4589 77.6097 18.4149 77.8058 18.3268C78.0046 18.2359 78.1708 18.1066 78.3043 17.939C78.4407 17.7714 78.5359 17.5697 78.5898 17.3339H79.8299C79.7844 17.7572 79.6467 18.135 79.4165 18.4674C79.1864 18.7998 78.8782 19.0612 78.4918 19.2515C78.1083 19.4418 77.658 19.537 77.141 19.537ZM82.4666 15.5185V19.4049H81.1925V10.6776H82.4496V13.9248H82.5305C82.6839 13.5725 82.9183 13.2927 83.2337 13.0853C83.549 12.8779 83.9609 12.7742 84.4695 12.7742C84.9183 12.7742 85.3104 12.8666 85.6456 13.0512C85.9837 13.2359 86.245 13.5114 86.4297 13.8779C86.6172 14.2416 86.7109 14.6961 86.7109 15.2416V19.4049H85.4368V15.395C85.4368 14.9149 85.3132 14.5427 85.0661 14.2785C84.8189 14.0114 84.4751 13.8779 84.0348 13.8779C83.7337 13.8779 83.4638 13.9418 83.2251 14.0697C82.9893 14.1975 82.8033 14.385 82.6669 14.6322C82.5334 14.8765 82.4666 15.172 82.4666 15.5185ZM91.2322 19.537C90.5874 19.537 90.032 19.3992 89.5661 19.1237C89.103 18.8452 88.745 18.4546 88.4922 17.9518C88.2422 17.4461 88.1172 16.8538 88.1172 16.1748C88.1172 15.5043 88.2422 14.9134 88.4922 14.4021C88.745 13.8907 89.0973 13.4916 89.549 13.2046C90.0036 12.9177 90.5348 12.7742 91.1428 12.7742C91.5121 12.7742 91.87 12.8353 92.2166 12.9575C92.5632 13.0796 92.8743 13.2714 93.1499 13.5327C93.4254 13.7941 93.6428 14.1336 93.8018 14.5512C93.9609 14.966 94.0405 15.4702 94.0405 16.064V16.5157H88.8374V15.5612H92.7919C92.7919 15.2259 92.7237 14.9291 92.5874 14.6705C92.451 14.4092 92.2592 14.2032 92.0121 14.0526C91.7678 13.9021 91.4808 13.8268 91.1513 13.8268C90.7933 13.8268 90.4808 13.9149 90.2138 14.091C89.9496 14.2643 89.745 14.4916 89.6001 14.7728C89.4581 15.0512 89.3871 15.3538 89.3871 15.6805V16.4262C89.3871 16.8637 89.4638 17.2359 89.6172 17.5427C89.7734 17.8495 89.9908 18.0839 90.2692 18.2458C90.5476 18.4049 90.8729 18.4845 91.245 18.4845C91.4865 18.4845 91.7067 18.4504 91.9055 18.3822C92.1044 18.3112 92.2763 18.206 92.4212 18.0668C92.5661 17.9276 92.6768 17.7558 92.7536 17.5512L93.9595 17.7685C93.8629 18.1237 93.6896 18.4347 93.4396 18.7018C93.1925 18.966 92.8814 19.172 92.5064 19.3197C92.1342 19.4646 91.7095 19.537 91.2322 19.537ZM95.4542 19.4049V12.8595H96.6857V13.8992H96.7539C96.8732 13.547 97.0835 13.27 97.3846 13.0683C97.6886 12.8637 98.0323 12.7614 98.4158 12.7614C98.4954 12.7614 98.5891 12.7643 98.6971 12.77C98.8079 12.7756 98.8945 12.7827 98.957 12.7913V14.01C98.9059 13.9958 98.815 13.9802 98.6843 13.9631C98.5536 13.9433 98.4229 13.9333 98.2923 13.9333C97.9911 13.9333 97.7227 13.9972 97.4869 14.1251C97.2539 14.2501 97.0692 14.4248 96.9329 14.6492C96.7965 14.8708 96.7283 15.1237 96.7283 15.4077V19.4049H95.4542Z" fill="#010E16"/>
</svg>
