<svg width="90" height="14" viewBox="0 0 90 14" fill="none" xmlns="http://www.w3.org/2000/svg">
<path d="M0.541231 12.8482V0.156244H5.06522C6.04852 0.156244 6.86449 0.325635 7.51313 0.664418C8.16591 1.0032 8.65343 1.47213 8.97568 2.07119C9.29794 2.66613 9.45907 3.35402 9.45907 4.13488C9.45907 4.9116 9.29588 5.59536 8.96949 6.18617C8.64723 6.77284 8.15971 7.22937 7.50694 7.55576C6.85829 7.88215 6.04232 8.04534 5.05902 8.04534H1.63195V6.39687H4.8855C5.50523 6.39687 6.00927 6.30804 6.39763 6.13039C6.79012 5.95274 7.07726 5.69452 7.25905 5.35573C7.44083 5.01695 7.53173 4.61 7.53173 4.13488C7.53173 3.65562 7.43877 3.24041 7.25285 2.88923C7.07106 2.53805 6.78392 2.26951 6.39143 2.08359C6.00307 1.89354 5.49283 1.79851 4.86071 1.79851H2.45618V12.8482H0.541231ZM6.80665 7.12195L9.94245 12.8482H7.76102L4.68719 7.12195H6.80665ZM15.6238 13.0403C14.6859 13.0403 13.8782 12.8399 13.2007 12.4392C12.5272 12.0343 12.0067 11.4662 11.639 10.7349C11.2754 9.99954 11.0936 9.13812 11.0936 8.15069C11.0936 7.17566 11.2754 6.31631 11.639 5.57264C12.0067 4.82897 12.519 4.24849 13.1759 3.83121C13.8369 3.41393 14.6095 3.20529 15.4936 3.20529C16.0307 3.20529 16.5513 3.29412 17.0553 3.47177C17.5594 3.64943 18.0118 3.9283 18.4125 4.3084C18.8133 4.6885 19.1294 5.18221 19.3607 5.78954C19.5921 6.39274 19.7078 7.12608 19.7078 7.98956V8.64647H12.1409V7.25829H17.892C17.892 6.77077 17.7928 6.33903 17.5945 5.96306C17.3962 5.58297 17.1173 5.28343 16.7579 5.06446C16.4026 4.84549 15.9853 4.73601 15.506 4.73601C14.9855 4.73601 14.531 4.86409 14.1426 5.12024C13.7584 5.37226 13.4609 5.70278 13.2502 6.1118C13.0437 6.51668 12.9404 6.95669 12.9404 7.43181V8.51633C12.9404 9.15258 13.0519 9.69381 13.275 10.14C13.5023 10.5862 13.8183 10.9271 14.2232 11.1626C14.6281 11.3939 15.1011 11.5096 15.6424 11.5096C15.9935 11.5096 16.3137 11.46 16.6029 11.3609C16.8922 11.2576 17.1421 11.1047 17.3528 10.9023C17.5635 10.6998 17.7246 10.4499 17.8362 10.1524L19.59 10.4685C19.4495 10.9849 19.1975 11.4373 18.834 11.8257C18.4745 12.2099 18.0221 12.5094 17.4768 12.7243C16.9355 12.935 16.3179 13.0403 15.6238 13.0403ZM28.8967 5.6532L27.2173 5.95067C27.147 5.73583 27.0355 5.53132 26.8826 5.33714C26.7339 5.14296 26.5315 4.9839 26.2753 4.85995C26.0191 4.73601 25.699 4.67404 25.3147 4.67404C24.79 4.67404 24.3521 4.79178 24.0009 5.02728C23.6497 5.25864 23.4741 5.55818 23.4741 5.92588C23.4741 6.24401 23.5919 6.50016 23.8274 6.69434C24.0629 6.88852 24.443 7.04758 24.9677 7.17153L26.4798 7.51857C27.3557 7.72102 28.0085 8.03294 28.4381 8.45436C28.8678 8.87577 29.0827 9.42319 29.0827 10.0966C29.0827 10.6668 28.9174 11.1749 28.5869 11.6212C28.2605 12.0632 27.804 12.4103 27.2173 12.6623C26.6347 12.9143 25.9592 13.0403 25.1908 13.0403C24.1249 13.0403 23.2552 12.8131 22.5817 12.3586C21.9083 11.9 21.4952 11.2493 21.3423 10.4065L23.1333 10.1338C23.2448 10.6007 23.4741 10.9539 23.8212 11.1935C24.1682 11.429 24.6206 11.5468 25.1784 11.5468C25.7857 11.5468 26.2712 11.4208 26.6347 11.1688C26.9983 10.9126 27.1801 10.6007 27.1801 10.233C27.1801 9.9355 27.0685 9.68554 26.8454 9.4831C26.6265 9.28066 26.2898 9.12779 25.8353 9.0245L24.224 8.67126C23.3357 8.46882 22.6788 8.14656 22.2533 7.70449C21.8319 7.26242 21.6212 6.7026 21.6212 6.02504C21.6212 5.46315 21.7782 4.9715 22.0922 4.55009C22.4061 4.12868 22.84 3.80023 23.3936 3.56473C23.9472 3.3251 24.5814 3.20529 25.2961 3.20529C26.3249 3.20529 27.1346 3.42839 27.7255 3.87459C28.3163 4.31666 28.7067 4.90953 28.8967 5.6532ZM35.5634 3.32923V4.81657H30.3639V3.32923H35.5634ZM31.7583 1.04865H33.6113V10.0532C33.6113 10.4127 33.665 10.6833 33.7724 10.8651C33.8798 11.0427 34.0182 11.1646 34.1876 11.2307C34.3612 11.2927 34.5491 11.3237 34.7516 11.3237C34.9003 11.3237 35.0305 11.3134 35.142 11.2927C35.2536 11.272 35.3403 11.2555 35.4023 11.2431L35.7369 12.7738C35.6295 12.8152 35.4767 12.8565 35.2783 12.8978C35.08 12.9432 34.8321 12.968 34.5347 12.9722C34.0472 12.9804 33.5927 12.8937 33.1713 12.7119C32.7499 12.5301 32.409 12.2491 32.1487 11.869C31.8885 11.4889 31.7583 11.0118 31.7583 10.4375V1.04865ZM40.3833 13.0589C39.7801 13.0589 39.2348 12.9474 38.7473 12.7243C38.2597 12.497 37.8734 12.1686 37.5884 11.7389C37.3074 11.3092 37.167 10.7825 37.167 10.1586C37.167 9.62151 37.2702 9.17944 37.4768 8.83239C37.6834 8.48534 37.9623 8.2106 38.3135 8.00816C38.6646 7.80571 39.0571 7.65285 39.4909 7.54956C39.9247 7.44627 40.3668 7.36777 40.8171 7.31406C41.3873 7.24796 41.85 7.19425 42.2053 7.15294C42.5606 7.10749 42.8188 7.03519 42.98 6.93603C43.1411 6.83688 43.2217 6.67575 43.2217 6.45265V6.40927C43.2217 5.86804 43.0688 5.44869 42.7631 5.15122C42.4615 4.85376 42.0111 4.70502 41.4121 4.70502C40.7882 4.70502 40.2966 4.84343 39.9371 5.12024C39.5818 5.39292 39.336 5.69658 39.1997 6.03123L37.4582 5.63461C37.6648 5.0562 37.9664 4.58934 38.363 4.23403C38.7638 3.87459 39.2244 3.61431 39.745 3.45318C40.2656 3.28792 40.813 3.20529 41.3873 3.20529C41.7674 3.20529 42.1702 3.25074 42.5957 3.34163C43.0254 3.42839 43.4262 3.58952 43.798 3.82501C44.174 4.06051 44.4818 4.39723 44.7214 4.83517C44.961 5.26897 45.0808 5.83292 45.0808 6.52701V12.8482H43.2712V11.5468H43.1969C43.0771 11.7864 42.8973 12.0219 42.6577 12.2533C42.4181 12.4846 42.1103 12.6767 41.7343 12.8296C41.3584 12.9825 40.908 13.0589 40.3833 13.0589ZM40.7862 11.5716C41.2985 11.5716 41.7364 11.4704 42.1 11.2679C42.4677 11.0655 42.7465 10.801 42.9366 10.4747C43.1308 10.1441 43.2279 9.7909 43.2279 9.41493V8.18788C43.1618 8.25398 43.0337 8.31595 42.8436 8.37379C42.6577 8.4275 42.4449 8.47502 42.2053 8.51633C41.9657 8.55351 41.7323 8.58863 41.505 8.62168C41.2778 8.6506 41.0878 8.67539 40.9349 8.69605C40.5754 8.7415 40.247 8.81793 39.9495 8.92535C39.6562 9.03277 39.4207 9.1877 39.243 9.39014C39.0695 9.58845 38.9828 9.85287 38.9828 10.1834C38.9828 10.642 39.1521 10.989 39.4909 11.2245C39.8297 11.4559 40.2615 11.5716 40.7862 11.5716ZM53.5788 8.90056V3.32923H55.438V12.8482H53.616V11.1997H53.5168C53.2979 11.7079 52.9467 12.1314 52.4633 12.4702C51.9841 12.8048 51.3871 12.9722 50.6723 12.9722C50.0608 12.9722 49.5196 12.8379 49.0486 12.5693C48.5818 12.2967 48.2141 11.8938 47.9455 11.3609C47.6811 10.8279 47.5489 10.1689 47.5489 9.38394V3.32923H49.4019V9.16084C49.4019 9.80949 49.5816 10.3259 49.941 10.7102C50.3005 11.0944 50.7673 11.2865 51.3416 11.2865C51.6887 11.2865 52.0336 11.1997 52.3766 11.0262C52.7236 10.8527 53.0107 10.5903 53.238 10.2392C53.4693 9.88799 53.5829 9.44179 53.5788 8.90056ZM57.9277 12.8482V3.32923H59.7187V4.84136H59.8179C59.9914 4.32906 60.2971 3.92624 60.7351 3.6329C61.1772 3.33543 61.6771 3.1867 62.2348 3.1867C62.3505 3.1867 62.4868 3.19083 62.6438 3.19909C62.805 3.20736 62.931 3.21768 63.0219 3.23008V5.00249C62.9475 4.98183 62.8153 4.95911 62.6252 4.93432C62.4352 4.9054 62.2451 4.89094 62.0551 4.89094C61.6172 4.89094 61.2267 4.9839 60.8838 5.16982C60.545 5.3516 60.2765 5.60569 60.0782 5.93208C59.8799 6.25433 59.7807 6.62204 59.7807 7.03519V12.8482H57.9277ZM67.3104 13.0589C66.7072 13.0589 66.1618 12.9474 65.6743 12.7243C65.1868 12.497 64.8005 12.1686 64.5154 11.7389C64.2345 11.3092 64.094 10.7825 64.094 10.1586C64.094 9.62151 64.1973 9.17944 64.4039 8.83239C64.6104 8.48534 64.8893 8.2106 65.2405 8.00816C65.5917 7.80571 65.9842 7.65285 66.418 7.54956C66.8518 7.44627 67.2938 7.36777 67.7442 7.31406C68.3143 7.24796 68.777 7.19425 69.1324 7.15294C69.4877 7.10749 69.7459 7.03519 69.907 6.93603C70.0681 6.83688 70.1487 6.67575 70.1487 6.45265V6.40927C70.1487 5.86804 69.9958 5.44869 69.6901 5.15122C69.3885 4.85376 68.9382 4.70502 68.3391 4.70502C67.7153 4.70502 67.2236 4.84343 66.8642 5.12024C66.5089 5.39292 66.263 5.69658 66.1267 6.03123L64.3853 5.63461C64.5918 5.0562 64.8934 4.58934 65.2901 4.23403C65.6908 3.87459 66.1515 3.61431 66.672 3.45318C67.1926 3.28792 67.74 3.20529 68.3143 3.20529C68.6944 3.20529 69.0972 3.25074 69.5228 3.34163C69.9525 3.42839 70.3532 3.58952 70.725 3.82501C71.101 4.06051 71.4088 4.39723 71.6484 4.83517C71.8881 5.26897 72.0079 5.83292 72.0079 6.52701V12.8482H70.1983V11.5468H70.1239C70.0041 11.7864 69.8244 12.0219 69.5848 12.2533C69.3451 12.4846 69.0373 12.6767 68.6614 12.8296C68.2854 12.9825 67.8351 13.0589 67.3104 13.0589ZM67.7132 11.5716C68.2255 11.5716 68.6634 11.4704 69.027 11.2679C69.3947 11.0655 69.6736 10.801 69.8636 10.4747C70.0578 10.1441 70.1549 9.7909 70.1549 9.41493V8.18788C70.0888 8.25398 69.9607 8.31595 69.7707 8.37379C69.5848 8.4275 69.372 8.47502 69.1324 8.51633C68.8927 8.55351 68.6593 8.58863 68.4321 8.62168C68.2048 8.6506 68.0148 8.67539 67.8619 8.69605C67.5025 8.7415 67.174 8.81793 66.8766 8.92535C66.5832 9.03277 66.3477 9.1877 66.1701 9.39014C65.9965 9.58845 65.9098 9.85287 65.9098 10.1834C65.9098 10.642 66.0792 10.989 66.418 11.2245C66.7567 11.4559 67.1885 11.5716 67.7132 11.5716ZM76.3289 7.19632V12.8482H74.4759V3.32923H76.2545V4.87855H76.3723C76.5913 4.3745 76.9342 3.96962 77.401 3.66389C77.872 3.35816 78.4649 3.20529 79.1796 3.20529C79.8283 3.20529 80.3964 3.34163 80.8839 3.61431C81.3714 3.88286 81.7494 4.28361 82.018 4.81657C82.2865 5.34954 82.4208 6.00851 82.4208 6.7935V12.8482H80.5678V7.0166C80.5678 6.32664 80.3881 5.78748 80.0287 5.39912C79.6692 5.00662 79.1755 4.81038 78.5475 4.81038C78.1178 4.81038 77.7357 4.90334 77.401 5.08925C77.0705 5.27517 76.8082 5.54785 76.614 5.90729C76.4239 6.2626 76.3289 6.69227 76.3289 7.19632ZM89.3493 3.32923V4.81657H84.1498V3.32923H89.3493ZM85.5442 1.04865H87.3972V10.0532C87.3972 10.4127 87.4509 10.6833 87.5583 10.8651C87.6657 11.0427 87.8041 11.1646 87.9735 11.2307C88.1471 11.2927 88.335 11.3237 88.5375 11.3237C88.6862 11.3237 88.8164 11.3134 88.9279 11.2927C89.0395 11.272 89.1262 11.2555 89.1882 11.2431L89.5228 12.7738C89.4154 12.8152 89.2626 12.8565 89.0642 12.8978C88.8659 12.9432 88.618 12.968 88.3206 12.9722C87.8331 12.9804 87.3786 12.8937 86.9572 12.7119C86.5358 12.5301 86.1949 12.2491 85.9346 11.869C85.6744 11.4889 85.5442 11.0118 85.5442 10.4375V1.04865Z" fill="#010E16"/>
</svg>
