<svg width="46" height="9" viewBox="0 0 46 9" fill="none" xmlns="http://www.w3.org/2000/svg">
<path d="M5.96646 2.5001C5.91689 2.08145 5.71582 1.75643 5.36327 1.52507C5.01071 1.29371 4.57828 1.17802 4.06598 1.17802C3.69139 1.17802 3.36362 1.23862 3.08268 1.35981C2.80449 1.481 2.5869 1.64764 2.4299 1.85972C2.27566 2.0718 2.19854 2.31281 2.19854 2.58273C2.19854 2.80859 2.25225 3.00277 2.35967 3.16527C2.46984 3.32503 2.61031 3.45861 2.78108 3.56603C2.95185 3.67069 3.13088 3.75746 3.31817 3.82631C3.50547 3.89242 3.67761 3.94613 3.83461 3.98744L4.69396 4.21881C4.91431 4.27665 5.15945 4.35652 5.42937 4.45843C5.70205 4.56034 5.96233 4.69944 6.21022 4.87571C6.46087 5.04924 6.66744 5.27234 6.82995 5.54502C6.99245 5.8177 7.07371 6.15235 7.07371 6.54897C7.07371 7.00619 6.95389 7.41934 6.71427 7.78842C6.47739 8.1575 6.13035 8.45084 5.67313 8.66843C5.21866 8.88602 4.66642 8.99482 4.0164 8.99482C3.41044 8.99482 2.88574 8.89704 2.4423 8.70148C2.0016 8.50592 1.65456 8.23325 1.40116 7.88345C1.15051 7.53365 1.00867 7.12738 0.975615 6.66465H2.03328C2.06082 6.98416 2.16824 7.24857 2.35554 7.4579C2.54558 7.66448 2.78521 7.81872 3.07442 7.92063C3.36638 8.01978 3.68037 8.06936 4.0164 8.06936C4.40751 8.06936 4.75869 8.00601 5.06993 7.87931C5.38117 7.74986 5.62768 7.57083 5.80947 7.34222C5.99125 7.11086 6.08215 6.84093 6.08215 6.53245C6.08215 6.2515 6.00365 6.02289 5.84665 5.84662C5.68965 5.67034 5.48308 5.52711 5.22693 5.41694C4.97077 5.30677 4.69396 5.21037 4.3965 5.12774L3.35536 4.83027C2.69432 4.64022 2.171 4.36892 1.78539 4.01636C1.39978 3.66381 1.20698 3.20246 1.20698 2.63231C1.20698 2.15857 1.33506 1.74542 1.59121 1.39286C1.85012 1.03755 2.19716 0.76212 2.63235 0.566562C3.07028 0.36825 3.55918 0.269094 4.09903 0.269094C4.64439 0.269094 5.12915 0.366873 5.55331 0.562431C5.97748 0.755234 6.31351 1.01965 6.5614 1.35568C6.81204 1.69171 6.94425 2.07318 6.95802 2.5001H5.96646ZM9.60115 5.02858V8.84608H8.62612V0.384776H9.60115V3.49166H9.68378C9.83251 3.1639 10.0556 2.90361 10.3531 2.71081C10.6533 2.51525 11.0527 2.41747 11.5512 2.41747C11.9836 2.41747 12.3624 2.50424 12.6874 2.67776C13.0124 2.84853 13.2644 3.11157 13.4434 3.46687C13.6252 3.81943 13.7161 4.26838 13.7161 4.81374V8.84608H12.7411V4.87985C12.7411 4.3758 12.6103 3.98607 12.3486 3.71063C12.0897 3.43244 11.7302 3.29335 11.2703 3.29335C10.9508 3.29335 10.6643 3.36083 10.4109 3.49579C10.1603 3.63076 9.96197 3.82769 9.81599 4.0866C9.67276 4.34551 9.60115 4.6595 9.60115 5.02858ZM18.078 8.97829C17.505 8.97829 17.0024 8.84195 16.57 8.56927C16.1403 8.2966 15.8042 7.91512 15.5619 7.42485C15.3222 6.93458 15.2024 6.36168 15.2024 5.70615C15.2024 5.04511 15.3222 4.46807 15.5619 3.97505C15.8042 3.48202 16.1403 3.09917 16.57 2.82649C17.0024 2.55381 17.505 2.41747 18.078 2.41747C18.6509 2.41747 19.1521 2.55381 19.5818 2.82649C20.0142 3.09917 20.3503 3.48202 20.5899 3.97505C20.8323 4.46807 20.9535 5.04511 20.9535 5.70615C20.9535 6.36168 20.8323 6.93458 20.5899 7.42485C20.3503 7.91512 20.0142 8.2966 19.5818 8.56927C19.1521 8.84195 18.6509 8.97829 18.078 8.97829ZM18.078 8.10241C18.5131 8.10241 18.8712 7.99086 19.1521 7.76776C19.4331 7.54466 19.641 7.25133 19.776 6.88775C19.911 6.52418 19.9784 6.13031 19.9784 5.70615C19.9784 5.28198 19.911 4.88673 19.776 4.52041C19.641 4.15408 19.4331 3.85799 19.1521 3.63213C18.8712 3.40628 18.5131 3.29335 18.078 3.29335C17.6428 3.29335 17.2847 3.40628 17.0038 3.63213C16.7228 3.85799 16.5149 4.15408 16.3799 4.52041C16.2449 4.88673 16.1775 5.28198 16.1775 5.70615C16.1775 6.13031 16.2449 6.52418 16.3799 6.88775C16.5149 7.25133 16.7228 7.54466 17.0038 7.76776C17.2847 7.99086 17.6428 8.10241 18.078 8.10241ZM23.6637 8.84608L21.7302 2.5001H22.7548L24.1265 7.35875H24.1926L25.5477 2.5001H26.5888L27.9274 7.34222H27.9935L29.3652 2.5001H30.3898L28.4563 8.84608H27.4978L26.1096 3.97092H26.0104L24.6222 8.84608H23.6637ZM36.8184 8.99482C36.4163 8.99482 36.0513 8.91907 35.7236 8.76759C35.3958 8.61334 35.1355 8.39162 34.9427 8.10241C34.7499 7.81046 34.6535 7.4579 34.6535 7.04475C34.6535 6.68118 34.7251 6.38647 34.8684 6.16061C35.0116 5.932 35.203 5.75297 35.4426 5.62352C35.6823 5.49406 35.9467 5.39766 36.2359 5.33431C36.5278 5.26821 36.8212 5.21588 37.1159 5.17731C37.5015 5.12774 37.8141 5.09055 38.0537 5.06576C38.2961 5.03822 38.4724 4.99277 38.5826 4.92942C38.6955 4.86607 38.752 4.7559 38.752 4.5989V4.56585C38.752 4.15821 38.6404 3.84146 38.4173 3.61561C38.197 3.38975 37.8623 3.27683 37.4134 3.27683C36.9479 3.27683 36.5829 3.37874 36.3185 3.58256C36.0541 3.78638 35.8682 4.00397 35.7608 4.23533L34.8353 3.90481C35.0006 3.51921 35.2209 3.21898 35.4963 3.00415C35.7745 2.78655 36.0775 2.63507 36.4053 2.54968C36.7358 2.46154 37.0608 2.41747 37.3803 2.41747C37.5841 2.41747 37.8182 2.44226 38.0827 2.49184C38.3498 2.53866 38.6074 2.63644 38.8553 2.78518C39.1059 2.93391 39.3139 3.15839 39.4791 3.45861C39.6444 3.75883 39.727 4.16097 39.727 4.66501V8.84608H38.752V7.98673H38.7024C38.6363 8.12445 38.5261 8.27181 38.3719 8.4288C38.2176 8.5858 38.0124 8.71939 37.7563 8.82956C37.5001 8.93973 37.1875 8.99482 36.8184 8.99482ZM36.9672 8.11894C37.3528 8.11894 37.6778 8.0432 37.9422 7.89171C38.2094 7.74022 38.4104 7.54466 38.5454 7.30504C38.6831 7.06541 38.752 6.81339 38.752 6.54897V5.65657C38.7107 5.70615 38.6198 5.75159 38.4793 5.79291C38.3416 5.83147 38.1818 5.8659 38 5.89619C37.821 5.92374 37.6461 5.94853 37.4753 5.97056C37.3073 5.98984 37.171 6.00637 37.0663 6.02014C36.8129 6.05319 36.576 6.1069 36.3557 6.18127C36.1381 6.25288 35.9618 6.36168 35.8269 6.50766C35.6947 6.65088 35.6286 6.84644 35.6286 7.09433C35.6286 7.43311 35.7539 7.68927 36.0045 7.86279C36.2579 8.03356 36.5788 8.11894 36.9672 8.11894ZM42.4817 0.384776V8.84608H41.5066V0.384776H42.4817ZM45.2426 0.384776V8.84608H44.2675V0.384776H45.2426Z" fill="#459FCA"/>
</svg>
