<svg width="56" height="31" viewBox="0 0 56 31" fill="none" xmlns="http://www.w3.org/2000/svg">
<path d="M0 0H41C49.2843 0 56 6.71573 56 15V31H15C6.71573 31 0 24.2843 0 16V0Z" fill="#010E16"/>
<path d="M24.0199 10.8182V21H22.3793L17.5817 14.0646H17.4972V21H15.6527V10.8182H17.3033L22.0959 17.7585H22.1854V10.8182H24.0199ZM29.3308 21.1491C28.5652 21.1491 27.9039 20.9901 27.3471 20.6719C26.7936 20.3504 26.3677 19.8963 26.0694 19.3097C25.7711 18.7197 25.622 18.0253 25.622 17.2266C25.622 16.4411 25.7711 15.7517 26.0694 15.1584C26.371 14.5618 26.792 14.0978 27.3322 13.7663C27.8725 13.4316 28.5072 13.2642 29.2363 13.2642C29.707 13.2642 30.1511 13.3404 30.5687 13.4929C30.9896 13.642 31.3609 13.8741 31.6824 14.1889C32.0072 14.5038 32.2624 14.9048 32.448 15.392C32.6336 15.8759 32.7264 16.4527 32.7264 17.1222V17.674H26.4672V16.4609H31.0012C30.9979 16.1162 30.9234 15.8097 30.7775 15.5412C30.6317 15.2694 30.4279 15.0556 30.166 14.8999C29.9075 14.7441 29.6059 14.6662 29.2612 14.6662C28.8933 14.6662 28.5701 14.7557 28.2917 14.9347C28.0133 15.1103 27.7962 15.3423 27.6404 15.6307C27.488 15.9157 27.4101 16.2289 27.4068 16.5703V17.6293C27.4068 18.0734 27.488 18.4545 27.6504 18.7727C27.8128 19.0876 28.0398 19.3295 28.3315 19.4986C28.6232 19.6643 28.9645 19.7472 29.3556 19.7472C29.6175 19.7472 29.8545 19.7107 30.0666 19.6378C30.2787 19.5616 30.4627 19.4505 30.6184 19.3047C30.7742 19.1589 30.8919 18.9782 30.9714 18.7628L32.6518 18.9517C32.5458 19.3958 32.3436 19.7836 32.0453 20.1151C31.7503 20.4432 31.3725 20.6984 30.9118 20.8807C30.4511 21.0597 29.9241 21.1491 29.3308 21.1491ZM35.7839 21L33.6262 13.3636H35.4608L36.8031 18.733H36.8727L38.2449 13.3636H40.0595L41.4316 18.7031H41.5062L42.8287 13.3636H44.6681L42.5055 21H40.6312L39.1994 15.8395H39.095L37.6632 21H35.7839Z" fill="white"/>
</svg>
